<?xml version="1.0" standalone="no"?>
<!DOCTYPE svg PUBLIC "-//W3C//DTD SVG 20010904//EN"
 "http://www.w3.org/TR/2001/REC-SVG-20010904/DTD/svg10.dtd">
<svg version="1.0" xmlns="http://www.w3.org/2000/svg"
 width="160.000000pt" height="160.000000pt" viewBox="0 0 160.000000 160.000000"
 preserveAspectRatio="xMidYMid meet">
<metadata>
Created by potrace 1.11, written by Peter Selinger 2001-2013
</metadata>
<g transform="translate(0.000000,160.000000) scale(0.100000,-0.100000)"
fill="#000000" stroke="none">
<path d="M748 1595 c-2 -2 -23 -4 -48 -6 -25 -1 -49 -5 -55 -8 -5 -3 -14 -6
-20 -6 -32 -1 -115 -29 -115 -38 0 -6 -3 -7 -7 -4 -3 4 -12 2 -20 -4 -7 -6
-13 -8 -13 -4 0 5 -9 0 -20 -10 -11 -10 -20 -15 -20 -11 0 4 -28 -12 -62 -36
-76 -53 -213 -186 -222 -216 -4 -12 -12 -22 -17 -22 -5 0 -9 -6 -9 -14 0 -8
-6 -21 -13 -28 -12 -12 -58 -123 -84 -204 -6 -17 -10 -47 -9 -67 1 -21 -2 -37
-5 -37 -13 0 -2 -209 12 -227 12 -14 12 -16 0 -8 -11 6 -13 4 -7 -11 7 -17 28
-85 37 -124 2 -8 8 -18 12 -21 5 -3 10 -12 12 -20 9 -38 18 -59 27 -59 5 0 6
-5 3 -10 -3 -6 -3 -10 2 -10 4 0 21 -21 38 -48 46 -74 148 -185 159 -175 3 4
6 2 6 -4 0 -9 64 -55 80 -58 13 -2 70 -40 70 -47 0 -4 6 -5 14 -2 8 3 17 0 21
-5 3 -6 10 -9 15 -6 5 3 11 1 15 -5 3 -5 17 -10 31 -10 14 0 23 -4 20 -8 -7
-12 -4 -12 189 -17 169 -4 241 4 291 32 12 7 24 9 28 6 3 -3 6 -1 6 6 0 7 5 9
10 6 6 -3 23 3 39 14 15 11 31 18 35 14 3 -3 6 -1 6 5 0 7 5 12 11 12 7 0 18
8 25 18 7 9 14 12 14 5 0 -6 19 5 42 25 63 56 141 132 134 132 -3 0 6 12 19
26 14 15 22 32 18 38 -4 6 0 5 9 -2 14 -11 16 -10 11 7 -3 13 -1 21 8 21 7 0
9 3 6 7 -4 3 -2 12 4 19 17 20 49 87 49 101 0 7 5 13 12 13 6 0 9 3 5 6 -3 4
0 22 9 42 8 19 12 37 9 40 -3 3 0 11 6 19 9 10 8 13 -1 13 -10 0 -10 3 -1 14
18 22 25 204 9 224 -11 13 -11 14 1 8 10 -7 12 -3 6 13 -8 27 -17 80 -17 104
1 9 -3 17 -9 17 -5 0 -9 9 -9 20 0 11 -4 28 -9 38 -5 9 -14 31 -21 47 -25 59
-45 95 -52 95 -5 0 -8 4 -8 9 0 26 -160 219 -160 194 0 -4 -4 -3 -8 2 -11 16
-80 65 -90 65 -6 0 -12 4 -14 9 -1 5 -10 11 -18 13 -8 2 -20 8 -26 13 -6 6
-31 17 -55 24 -24 7 -51 17 -60 21 -36 18 -268 47 -281 35z"/>
</g>
</svg>
